<?xml version="1.0" encoding="UTF-8" standalone="no"?>
<!DOCTYPE svg PUBLIC "-//W3C//DTD SVG 1.1//EN" "http://www.w3.org/Graphics/SVG/1.1/DTD/svg11.dtd">
<svg version="1.1" xmlns="http://www.w3.org/2000/svg" xmlns:xlink="http://www.w3.org/1999/xlink" preserveAspectRatio="xMidYMid meet" viewBox="0 0 128 128" width="128" height="128"><defs><path d="M118.38 0C123.69 0 128 4.31 128 9.62C128 33.3 128 94.7 128 118.38C128 123.69 123.69 128 118.38 128C94.7 128 33.3 128 9.62 128C4.31 128 0 123.69 0 118.38C0 94.7 0 33.3 0 9.62C0 4.31 4.31 0 9.62 0C33.3 0 94.7 0 118.38 0Z" id="b2WJt0iFpZ"></path><path d="" id="bJ4TGcQK1"></path><path d="" id="c6oSBwF6k8"></path><path d="M16 28L64 42.63L112 28L112 16L16 16L16 28Z" id="aF5K4AEiP"></path></defs><g><g><g><use xlink:href="#b2WJt0iFpZ" opacity="1" fill="#ff0000" fill-opacity="1"></use><g><use xlink:href="#b2WJt0iFpZ" opacity="1" fill-opacity="0" stroke="#800000" stroke-width="1" stroke-opacity="1"></use></g></g><g><g><use xlink:href="#bJ4TGcQK1" opacity="1" fill-opacity="0" stroke="#211717" stroke-width="1" stroke-opacity="1"></use></g></g><g><g><use xlink:href="#c6oSBwF6k8" opacity="1" fill-opacity="0" stroke="#211717" stroke-width="1" stroke-opacity="1"></use></g></g><g><use xlink:href="#aF5K4AEiP" opacity="1" fill="#ffffff" fill-opacity="1"></use><g><use xlink:href="#aF5K4AEiP" opacity="1" fill-opacity="0" stroke="#000000" stroke-width="1" stroke-opacity="1"></use></g></g></g></g></svg>